# xmcd
#
# Track frame offsets:
#	150
#	44517
#	79902
#	102405
#	120630
#	143892
#
# Disc length: 2165 seconds
# Revision: 0
# Processed by: cddbd v1.5.2PL0 Copyright (c) Steve Scherf et al.
# Submitted via: dBpowerAMP V12.0
#
DISCID=50087306
DTITLE=Bruce Roberts And Donna Summer - Whenever There Is Love (From “Daylight”)
DYEAR=1996
DGENRE=House
TTITLE0=Whenever There Is Love (From “Daylight”) [Junior Vasquez Club Mix]
TTITLE1=Whenever There Is Love (From “Daylight”) [Junior Vasquez Club Dub]
TTITLE2=Whenever There Is Love (From “Daylight”) [Junior Vasquez Riff Dub]
TTITLE3=Whenever There Is Love (From “Daylight”) [Junior Vasquez Tribal Beats]
TTITLE4=Whenever There Is Love (From “Daylight”) [Junior Vasquez Instrumental]
TTITLE5=Whenever There Is Love (From “Daylight”) [Junior Vasquez 7” Mix]
EXTD=
EXTT0=
EXTT1=
EXTT2=
EXTT3=
EXTT4=
EXTT5=
PLAYORDER=
